<svg width="103" height="32" viewBox="0 0 103 32" fill="none" xmlns="http://www.w3.org/2000/svg">
<path d="M79.1004 30.1259C79.0499 30.1772 79.0038 30.2323 78.9624 30.2914C78.9234 30.3513 78.8896 30.4143 78.8609 30.4796C78.8339 30.5461 78.8128 30.6146 78.7977 30.6846C78.7833 30.7551 78.7762 30.8267 78.7754 30.8983C78.7754 31.189 78.8928 31.4676 79.1016 31.673C79.3105 31.8784 79.5938 31.9938 79.8894 31.9938C79.9622 31.9938 80.035 31.9864 80.1067 31.9719C80.1779 31.9582 80.2479 31.9375 80.3148 31.9093C80.382 31.8827 80.4461 31.849 80.5065 31.8099C80.5666 31.7696 80.6231 31.7242 80.6748 31.6738C80.7269 31.6245 80.7731 31.5689 80.8117 31.5086C80.8527 31.4492 80.8877 31.3862 80.9155 31.3201C80.9422 31.2539 80.9637 31.1859 80.9788 31.1162C81.007 30.9753 81.007 30.8302 80.9788 30.6889C80.9637 30.6189 80.9426 30.5504 80.9155 30.4843C80.8877 30.4182 80.8527 30.3548 80.8117 30.2957C80.7723 30.2358 80.7265 30.1803 80.6748 30.1302C80.6235 30.0797 80.567 30.0343 80.5065 29.9944C80.446 29.9553 80.3816 29.922 80.3148 29.8947C80.2479 29.8669 80.1779 29.8457 80.1067 29.8324C79.7426 29.7605 79.3658 29.8704 79.1004 30.1259Z" fill="url(#paint0_linear_26_236)"/>
<path d="M15.2067 2.00054C23.591 2.00054 30.4126 8.70847 30.4126 16.9541C30.4242 20.2161 29.3411 23.3909 27.3311 25.9858C26.9424 26.4001 26.2978 26.4569 25.8406 26.1169C25.3835 25.7772 25.2629 25.152 25.5621 24.6711C27.277 22.4565 28.2012 19.7474 28.192 16.9639C28.1948 13.5767 26.8289 10.3272 24.3948 7.93025C21.9606 5.53331 18.6583 4.1858 15.2134 4.18429C11.7691 4.18273 8.46512 5.5267 6.02854 7.92094C3.59196 10.3151 2.2225 13.5634 2.22169 16.9506C2.22089 20.3382 3.58839 23.5869 6.02375 25.9826C8.45911 28.378 11.7623 29.724 15.207 29.724H25.9303C26.5077 29.7713 77.6736 30.3039 77.6736 30.8735C77.6736 31.4428 26.5076 31.8595 25.9303 31.9072H15.206C6.82168 31.9072 2.27966e-05 25.1993 2.27966e-05 16.9536C2.27966e-05 8.70843 6.82158 2 15.206 2L15.2067 2.00054Z" fill="url(#paint1_linear_26_236)"/>
<path d="M15.8332 25.192C13.9772 25.192 12.4945 24.776 11.3852 23.944C10.2758 23.112 9.72118 22.024 9.72118 20.68V20.424C9.72118 20.3173 9.75318 20.232 9.81718 20.168C9.90251 20.0827 9.99851 20.04 10.1052 20.04H12.8892C12.9958 20.04 13.0812 20.0827 13.1452 20.168C13.2305 20.232 13.2732 20.3173 13.2732 20.424V20.52C13.2732 21.032 13.5185 21.48 14.0092 21.864C14.4998 22.2267 15.1078 22.408 15.8332 22.408C16.5372 22.408 17.1025 22.2373 17.5292 21.896C17.9772 21.5547 18.2012 21.128 18.2012 20.616C18.2012 20.104 17.9772 19.7093 17.5292 19.432C17.1025 19.1547 16.4305 18.856 15.5132 18.536L14.6812 18.248C13.2305 17.7787 12.0678 17.192 11.1932 16.488C10.3185 15.7627 9.88118 14.696 9.88118 13.288C9.88118 11.7947 10.4145 10.6213 11.4812 9.768C12.5478 8.89333 13.9558 8.456 15.7052 8.456C17.5185 8.456 18.9585 8.904 20.0252 9.8C21.1132 10.6747 21.6572 11.848 21.6572 13.32V13.352C21.6572 13.4587 21.6145 13.5547 21.5292 13.64C21.4652 13.704 21.3798 13.736 21.2732 13.736H18.5852C18.4785 13.736 18.3825 13.704 18.2972 13.64C18.2332 13.5547 18.2012 13.4587 18.2012 13.352V13.224C18.2012 12.6907 17.9772 12.2533 17.5292 11.912C17.0812 11.5493 16.4945 11.368 15.7692 11.368C15.0652 11.368 14.4998 11.5387 14.0732 11.88C13.6465 12.2 13.4332 12.616 13.4332 13.128C13.4332 13.5333 13.5825 13.8747 13.8812 14.152C14.1798 14.408 14.5105 14.6107 14.8732 14.76C15.2572 14.9093 15.9185 15.144 16.8572 15.464C17.8598 15.8053 18.7025 16.1573 19.3852 16.52C20.0892 16.8827 20.6865 17.384 21.1772 18.024C21.6678 18.664 21.9132 19.4747 21.9132 20.456C21.9132 21.928 21.3585 23.0907 20.2492 23.944C19.1612 24.776 17.6892 25.192 15.8332 25.192Z" fill="#F6F6FB"/>
<path d="M39.436 11.506C40.7013 11.506 41.6893 11.9047 42.4 12.702C43.1107 13.4993 43.466 14.6 43.466 16.004V24.688C43.466 24.7747 43.4313 24.8527 43.362 24.922C43.31 24.974 43.2407 25 43.154 25H40.762C40.6753 25 40.5973 24.974 40.528 24.922C40.476 24.8527 40.45 24.7747 40.45 24.688V16.42C40.45 15.7093 40.268 15.146 39.904 14.73C39.5573 14.314 39.0807 14.106 38.474 14.106C37.85 14.106 37.3473 14.3227 36.966 14.756C36.602 15.172 36.42 15.7353 36.42 16.446V24.688C36.42 24.7747 36.3853 24.8527 36.316 24.922C36.264 24.974 36.1947 25 36.108 25H33.716C33.6293 25 33.5513 24.974 33.482 24.922C33.43 24.8527 33.404 24.7747 33.404 24.688V7.112C33.404 7.02533 33.43 6.956 33.482 6.904C33.5513 6.83467 33.6293 6.8 33.716 6.8H36.108C36.1947 6.8 36.264 6.83467 36.316 6.904C36.3853 6.956 36.42 7.02533 36.42 7.112V12.702C36.42 12.754 36.4373 12.7887 36.472 12.806C36.5067 12.8233 36.5413 12.806 36.576 12.754C37.2693 11.922 38.2227 11.506 39.436 11.506ZM46.7735 9.894C46.2362 9.894 45.7942 9.72067 45.4475 9.374C45.1182 9.02733 44.9535 8.58533 44.9535 8.048C44.9535 7.51067 45.1182 7.06867 45.4475 6.722C45.7942 6.37533 46.2362 6.202 46.7735 6.202C47.3282 6.202 47.7702 6.37533 48.0995 6.722C48.4462 7.05133 48.6195 7.49333 48.6195 8.048C48.6195 8.58533 48.4462 9.02733 48.0995 9.374C47.7528 9.72067 47.3108 9.894 46.7735 9.894ZM45.5775 25C45.4908 25 45.4128 24.974 45.3435 24.922C45.2915 24.8527 45.2655 24.7747 45.2655 24.688V12C45.2655 11.9133 45.2915 11.844 45.3435 11.792C45.4128 11.7227 45.4908 11.688 45.5775 11.688H47.9695C48.0562 11.688 48.1255 11.7227 48.1775 11.792C48.2468 11.844 48.2815 11.9133 48.2815 12V24.688C48.2815 24.7747 48.2468 24.8527 48.1775 24.922C48.1255 24.974 48.0562 25 47.9695 25H45.5775ZM56.2466 11.506C57.512 11.506 58.5 11.9047 59.2106 12.702C59.9213 13.4993 60.2766 14.6 60.2766 16.004V24.688C60.2766 24.7747 60.242 24.8527 60.1726 24.922C60.1206 24.974 60.0513 25 59.9646 25H57.5726C57.486 25 57.408 24.974 57.3386 24.922C57.2866 24.8527 57.2606 24.7747 57.2606 24.688V16.42C57.2606 15.7093 57.0786 15.146 56.7146 14.73C56.368 14.314 55.8913 14.106 55.2846 14.106C54.6606 14.106 54.158 14.3227 53.7766 14.756C53.4126 15.172 53.2306 15.7353 53.2306 16.446V24.688C53.2306 24.7747 53.196 24.8527 53.1266 24.922C53.0746 24.974 53.0053 25 52.9186 25H50.5266C50.44 25 50.362 24.974 50.2926 24.922C50.2406 24.8527 50.2146 24.7747 50.2146 24.688V12.026C50.2146 11.9393 50.2406 11.87 50.2926 11.818C50.362 11.7487 50.44 11.714 50.5266 11.714H52.9186C53.0053 11.714 53.0746 11.7487 53.1266 11.818C53.196 11.87 53.2306 11.9393 53.2306 12.026V12.702C53.2306 12.754 53.248 12.7887 53.2826 12.806C53.3173 12.8233 53.352 12.806 53.3866 12.754C54.08 11.922 55.0333 11.506 56.2466 11.506ZM72.0093 16.134C72.0613 16.706 72.0873 17.3647 72.0873 18.11L72.0613 19.228C72.0613 19.436 71.9573 19.54 71.7493 19.54H64.7813C64.6947 19.54 64.6513 19.5833 64.6513 19.67C64.686 20.1553 64.7207 20.5107 64.7553 20.736C64.842 21.308 65.0847 21.7673 65.4833 22.114C65.882 22.4607 66.3847 22.634 66.9913 22.634C67.5113 22.6167 67.9447 22.4867 68.2913 22.244C68.6553 22.0013 68.9327 21.6633 69.1233 21.23C69.21 21.0393 69.34 20.97 69.5133 21.022L71.6453 21.464C71.8533 21.5333 71.9227 21.6633 71.8533 21.854C71.5067 22.9287 70.9087 23.7607 70.0593 24.35C69.2273 24.922 68.2047 25.208 66.9913 25.208C65.5527 25.208 64.4 24.8613 63.5333 24.168C62.6667 23.4747 62.1033 22.5127 61.8433 21.282C61.7567 20.814 61.696 20.32 61.6613 19.8C61.644 19.28 61.6353 18.5867 61.6353 17.72C61.6353 16.8187 61.6787 16.134 61.7653 15.666C61.9387 14.4007 62.476 13.3953 63.3773 12.65C64.2787 11.8873 65.4227 11.506 66.8093 11.506C68.3173 11.506 69.5307 11.9307 70.4493 12.78C71.3853 13.6293 71.9053 14.7473 72.0093 16.134ZM66.8353 14.106C66.2633 14.106 65.7867 14.2793 65.4053 14.626C65.0413 14.9553 64.816 15.406 64.7293 15.978C64.6773 16.3593 64.6513 16.7927 64.6513 17.278C64.6513 17.3647 64.6947 17.408 64.7813 17.408H68.9153C69.002 17.408 69.0453 17.3647 69.0453 17.278C69.0107 16.6887 68.976 16.264 68.9413 16.004C68.872 15.432 68.6467 14.9727 68.2653 14.626C67.884 14.2793 67.4073 14.106 66.8353 14.106Z" fill="#F6F6FB"/>
<defs>
<linearGradient id="paint0_linear_26_236" x1="99.667" y1="29.6863" x2="99.667" y2="31.8694" gradientUnits="userSpaceOnUse">
<stop stop-color="#ED1E79"/>
<stop offset="0.0001" stop-color="#7166F9"/>
<stop offset="0.9998" stop-color="#E17CFD"/>
<stop offset="0.9999" stop-color="#4CD7F5"/>
<stop offset="1" stop-color="#79D2C6"/>
</linearGradient>
<linearGradient id="paint1_linear_26_236" x1="15.2064" y1="2" x2="15.2064" y2="31.9072" gradientUnits="userSpaceOnUse">
<stop stop-color="#7166F9"/>
<stop offset="0.510417" stop-color="#4CD7F5"/>
<stop offset="1" stop-color="#E17CFD"/>
</linearGradient>
</defs>
</svg>
